inDegrees=yes
name=ik_S42_A06_T01
DataType=double
version=3
OpenSimVersion=4.3-2021-08-27-4bc7ad9
endheader
time	pelvis_tilt	pelvis_list	pelvis_rotation	pelvis_tx	pelvis_ty	pelvis_tz	hip_flexion_r	hip_adduction_r	hip_rotation_r	knee_angle_r	knee_angle_r_beta	ankle_angle_r	subtalar_angle_r	mtp_angle_r	hip_flexion_l	hip_adduction_l	hip_rotation_l	knee_angle_l	knee_angle_l_beta	ankle_angle_l	subtalar_angle_l	mtp_angle_l	lumbar_extension	lumbar_bending	lumbar_rotation	arm_flex_r	arm_add_r	arm_rot_r	elbow_flex_r	pro_sup_r	wrist_flex_r	wrist_dev_r	arm_flex_l	arm_add_l	arm_rot_l	elbow_flex_l	pro_sup_l	wrist_flex_l	wrist_dev_l
14.63999999999978	-7.459784900463787	0.8929658593640659	16.51657594999574	0	0.9399999999999999	0	36.93150604120956	-10.74062791278438	-9.97471975203039	47.52049601232958	0.8293891175959871	0	0	0	36.93150604120956	-10.74062791278438	-9.97471975203039	47.52049601232958	0.8293891175959871	0	0	0	-5.80693267827483	1.863478638907956	0.8775337769733083	37.7748818249699	2.280517012338277	18.08448683416901	42.5917165427383	130.8810844970184	0	0	67.93456583908923	16.56109722330747	10.27995018828272	30.34981216562048	89.13935513236886	0	0
14.65999999999978	-7.5463318258415	0.9036900517274769	16.41167000445141	0	0.9399999999999999	0	36.93300208497906	-10.740155167767	-9.974730110710386	47.52142935181176	0.82940540744299	0	0	0	36.93300208497906	-10.740155167767	-9.974730110710386	47.52142935181176	0.82940540744299	0	0	0	-5.886481720131991	1.902415611369544	0.8365901037749507	37.85530712261652	2.313856443217377	18.18115471378582	42.65507200561729	130.8880756549936	0	0	68.0191006128502	16.60219313185324	10.0878692361665	30.41021416097097	89.04811559422735	0	0
14.67999999999978	-7.605041671722977	0.9211842121451698	16.36916560485426	0	0.9399999999999999	0	36.93499219000736	-10.73952919162958	-9.974743850292771	47.52267570586237	0.8294271604248187	0	0	0	36.93499219000736	-10.73952919162958	-9.974743850292771	47.52267570586237	0.8294271604248187	0	0	0	-5.938031599905719	1.936330036825895	0.8330673393519507	37.96501357226098	2.237881879937563	18.24285923807929	42.69070494004098	130.767822937433	0	0	68.08505649515195	16.65226774018269	9.86628797747449	30.51512816391772	89.03146746647919	0	0
14.69999999999978	-7.616984820301901	0.9143416205637349	16.37959479279845	0	0.9399999999999999	0	36.953678170628	-10.73345556816454	-9.974875224890948	47.534236829331	0.8296289400945759	0	0	0	36.953678170628	-10.73345556816454	-9.974875224890948	47.534236829331	0.8296289400945759	0	0	0	-5.953186149764954	1.93518324739872	0.8282883045156189	37.96554098284121	2.229803590764444	18.21527165254997	42.77409367728768	130.6596583820662	0	0	68.06336955840906	16.63047021078505	9.800485173001521	30.6444217931583	89.04392804682701	0	0
14.71999999999978	-7.659695227772665	0.9238947206733624	16.40198042280213	0	0.9399999999999999	0	36.95433473977658	-10.73325346259832	-9.974879699218759	47.5346542487206	0.829636225437286	0	0	0	36.95433473977658	-10.73325346259832	-9.974879699218759	47.5346542487206	0.829636225437286	0	0	0	-5.991643656493223	1.956245185105707	0.8306245393631569	37.96781204306611	2.17450606704984	18.24800996300973	42.80404258569391	130.6310048415508	0	0	68.08170355746425	16.58574433010391	9.886282357674061	30.68473801241068	89.03808050267908	0	0
14.73999999999977	-7.725784890738344	0.9302498164129001	16.4765709897069	0	0.9399999999999999	0	36.95641575731727	-10.73260330713	-9.974894018853044	47.53595897939238	0.8296589972833603	0	0	0	36.95641575731727	-10.73260330713	-9.974894018853044	47.53595897939238	0.8296589972833603	0	0	0	-6.054312069064007	1.977324608381541	0.8686815623833758	38.0249327499298	2.082834300567914	18.23633006464062	42.94058724848749	130.5356042873468	0	0	68.11393063128483	16.61450256597515	10.15976284376051	30.91298929795999	89.13231515489814	0	0
14.75999999999977	-7.748838892078033	0.9396044895131866	16.54657433048326	0	0.9399999999999999	0	36.95943684061362	-10.7316562708607	-9.974914856066281	47.53784565794692	0.8296919260360639	0	0	0	36.95943684061362	-10.7316562708607	-9.974914856066281	47.53784565794692	0.8296919260360639	0	0	0	-6.0744901747662	1.991158084422432	0.8880739811456457	38.01221668731368	2.012287452079565	18.2744323736929	43.04112076250384	130.4221424763259	0	0	68.04439586456489	16.62956875793725	10.38550776208469	31.10504583424277	88.9311725519661	0	0
14.77999999999977	-7.771992758991504	0.9578891478153413	16.60090823760535	0	0.9399999999999999	0	36.96011805308056	-10.73144783733021	-9.974919481214151	47.5382806807205	0.8296995186157839	0	0	0	36.96011805308056	-10.73144783733021	-9.974919481214151	47.5382806807205	0.8296995186157839	0	0	0	-6.09175220055087	2.014475495690547	0.8975905030617168	38.00234887639716	1.989054133872154	18.35302274487555	43.05267038080375	130.4018798885071	0	0	68.05273665935277	16.64936562614461	10.56191658649823	31.14280428674267	89.01213160589202	0	0
14.79999999999977	-7.78466929562358	0.9509031215888347	16.6730024622575	0	0.9399999999999999	0	36.96241332402453	-10.7307297140071	-9.974935294633447	47.53971567824158	0.8297245640472848	0	0	0	36.96241332402453	-10.7307297140071	-9.974935294633447	47.53971567824158	0.8297245640472848	0	0	0	-6.106436833939439	2.010084379557774	0.9120285443838738	38.01442878341012	1.979172901217923	18.41118368724957	43.11052945115432	130.2332618646446	0	0	68.01936475668658	16.67332677512428	10.76372757911245	31.25854622510564	88.89122864488654	0	0
14.81999999999977	-7.79237904849494	0.9607450951461345	16.7013975133472	0	0.9399999999999999	0	36.97656711915968	-10.72671469746194	-9.975027666964515	47.5486805824128	0.8298810311421984	0	0	0	36.97656711915968	-10.72671469746194	-9.975027666964515	47.5486805824128	0.8298810311421984	0	0	0	-6.112401813330191	2.022930722026369	0.9135543294015105	37.99868479774453	1.980494529583938	18.48564234275864	43.14781675945141	130.1644589490072	0	0	68.03521123464751	16.66144637504642	10.80621289635682	31.30432475494665	88.80883326443401	0	0
14.83999999999977	-7.791315623315429	0.9588532587366143	16.71346423308949	0	0.9399999999999999	0	36.98011920932343	-10.72503354518611	-9.975058874657345	47.55070259194152	0.8299163218659812	0	0	0	36.98011920932343	-10.72503354518611	-9.975058874657345	47.55070259194152	0.8299163218659812	0	0	0	-6.112132322425961	2.021719731051143	0.907473208176685	37.992530237167	2.013758841070497	18.52977875930936	43.14699340357998	130.1346091042316	0	-2.694034605743505e-36	68.0638714361192	16.62813143198754	10.76061334609154	31.2821737255657	88.78710065116319	0	-2.694034605743505e-36
14.85999999999977	-7.82948094548713	0.9779311723548381	16.75967630182733	0	0.9399999999999999	0	36.98286110980666	-10.72418117746238	-9.975077706666005	47.5524182778924	0.8299462662347543	0	0	0	36.98286110980666	-10.72418117746238	-9.975077706666005	47.5524182778924	0.8299462662347543	0	0	0	-6.143318147309998	2.051730993824353	0.903061271762402	38.06554788759333	1.986973120401484	18.57824069473198	43.15678451107204	130.0755957686186	0	0	68.19991196032251	16.74314063799535	10.57051017435909	31.21865371621997	88.88337649237151	0	0
14.87999999999977	-7.821460371336962	0.9737829842522784	16.78357087128269	0	0.9399999999999999	0	36.97785720877	-10.72530457555283	-9.975048261342241	47.54918061264176	0.8298897583160533	0	0	0	36.97785720877	-10.72530457555283	-9.975048261342241	47.54918061264176	0.8298897583160533	0	0	0	-6.136231321643825	2.045370012868148	0.8989309686704069	38.05038082868584	2.036705411698858	18.57241269451089	43.13151499574391	130.0821308639467	0	0	68.24493946927112	16.78961353214308	10.48948376580325	31.15459247079049	88.90236876598765	0	0
14.89999999999977	-7.833982117727637	0.983732904771817	16.75834247037206	0	0.9399999999999999	0	36.9800353409931	-10.7252329289594	-9.975055363427035	47.55081557598833	0.8299182938096002	0	0	0	36.9800353409931	-10.7252329289594	-9.975055363427035	47.55081557598833	0.8299182938096002	0	0	0	-6.145081250608348	2.061125124205019	0.8756314786374512	38.06655435350639	2.070232315153122	18.6380318400309	43.14593842001957	130.0322521297575	0	0	68.3882996414638	16.79282697029555	10.33089212522659	31.05036870124191	88.82886664538202	0	0
14.91999999999977	-7.845919667540587	1.003312292481209	16.66560239773685	0	0.9399999999999999	0	36.98602203012388	-10.72387534866955	-9.975090116172508	47.55475295579862	0.8299870140511914	0	0	0	36.98602203012388	-10.72387534866955	-9.975090116172508	47.55475295579862	0.8299870140511914	0	0	0	-6.151155118933688	2.085910839958971	0.8566173714116527	38.07327786353746	2.106163630429915	18.699708587438	43.1568478181857	130.052280946726	0	0	68.50820314673659	16.73184882455164	10.21801768802605	31.02264552033188	88.5764775765909	0	0
14.93999999999977	-7.858694760389392	1.007738732879955	16.60101223541968	0	0.9399999999999999	0	36.99893918035086	-10.72048766139792	-9.975171124087849	47.56303906293419	0.8301316339028801	0	0	0	36.99893918035086	-10.72048766139792	-9.975171124087849	47.56303906293419	0.8301316339028801	0	0	0	-6.163445282652051	2.094303144285134	0.8632029187449263	38.10731093087288	2.111800066632944	18.66514756843903	43.15824645727098	130.1052648319353	0	0	68.60697354920381	16.62741764874585	10.23592592944345	31.09176090924408	88.18369196577369	0	0
14.95999999999977	-7.861271627229464	1.011581678180489	16.51274892307527	0	0.9399999999999999	0	37.00274190823265	-10.71930764411498	-9.975197223532987	47.56541513651415	0.83017310421012	0	0	0	37.00274190823265	-10.71930764411498	-9.975197223532987	47.56541513651415	0.83017310421012	0	0	0	-6.164913743929987	2.100633986905322	0.848050056298112	38.11794015714777	2.173274640168295	18.61163022439355	43.09707427427242	130.1861345057292	0	0	68.70249505275449	16.47406074547986	10.16990356658332	31.33966431661285	87.93035002887673	0	0
14.97999999999977	-7.859643648442765	1.016993062838682	16.44699535821023	0	0.9399999999999999	0	37.00534246706562	-10.7185134658335	-9.975214887316096	47.56706443221421	0.830201889850425	0	0	0	37.00534246706562	-10.7185134658335	-9.975214887316096	47.56706443221421	0.830201889850425	0	0	0	-6.16129572772428	2.109171720757852	0.8119722368809039	38.14091339624115	2.220015453444635	18.56841438134709	43.06707773735604	130.2635824528098	0	0	68.81356395256743	16.25096100457749	9.984114015285373	31.59314263429876	87.88404027302215	0	0
